<mxfile host="app.diagrams.net" modified="2024-04-05T09:49:57.818Z" agent="Mozilla/5.0 (Windows NT 10.0; Win64; x64) AppleWebKit/537.36 (KHTML, like Gecko) Chrome/123.0.0.0 Safari/537.36" etag="nt7z56eS3_Qzf0gk6KkL" version="24.2.2" type="github">
  <diagram name="Page-1" id="2jkOA4S1mMD9vGxF3OOZ">
    <mxGraphModel dx="4412" dy="3134" grid="1" gridSize="10" guides="1" tooltips="1" connect="1" arrows="1" fold="1" page="1" pageScale="1" pageWidth="827" pageHeight="1169" math="0" shadow="0">
      <root>
        <mxCell id="0" />
        <mxCell id="1" parent="0" />
        <mxCell id="2wjJZJvgFoSb4_y81fCn-2" value="&lt;font style=&quot;font-size: 26px;&quot;&gt;USERS SERVICE&lt;/font&gt;" style="ellipse;whiteSpace=wrap;html=1;" parent="1" vertex="1">
          <mxGeometry x="-750" y="-1020" width="280" height="270" as="geometry" />
        </mxCell>
        <mxCell id="2wjJZJvgFoSb4_y81fCn-3" value="&lt;font style=&quot;font-size: 26px;&quot;&gt;ANALYSIS SERVICE&lt;/font&gt;" style="ellipse;whiteSpace=wrap;html=1;" parent="1" vertex="1">
          <mxGeometry x="414" y="-330" width="280" height="270" as="geometry" />
        </mxCell>
        <mxCell id="2wjJZJvgFoSb4_y81fCn-4" value="&lt;font style=&quot;font-size: 26px;&quot;&gt;PAYMENTS SERVICE&lt;/font&gt;" style="ellipse;whiteSpace=wrap;html=1;" parent="1" vertex="1">
          <mxGeometry x="-680" y="-350" width="280" height="270" as="geometry" />
        </mxCell>
        <mxCell id="2wjJZJvgFoSb4_y81fCn-5" value="&lt;font style=&quot;font-size: 26px;&quot;&gt;EMAIL SERVICE&lt;/font&gt;" style="ellipse;whiteSpace=wrap;html=1;" parent="1" vertex="1">
          <mxGeometry x="-800" y="-670" width="280" height="270" as="geometry" />
        </mxCell>
        <mxCell id="2wjJZJvgFoSb4_y81fCn-6" value="&lt;font style=&quot;font-size: 26px;&quot;&gt;FRONTEND SERVICE&amp;nbsp;&lt;/font&gt;" style="rounded=1;whiteSpace=wrap;html=1;" parent="1" vertex="1">
          <mxGeometry x="-150" y="-220" width="300" height="165" as="geometry" />
        </mxCell>
        <mxCell id="2wjJZJvgFoSb4_y81fCn-7" value="&lt;font style=&quot;font-size: 26px;&quot;&gt;CART SERVICE&lt;/font&gt;" style="ellipse;whiteSpace=wrap;html=1;" parent="1" vertex="1">
          <mxGeometry x="460" y="-660" width="280" height="270" as="geometry" />
        </mxCell>
        <mxCell id="2wjJZJvgFoSb4_y81fCn-8" value="&lt;font style=&quot;font-size: 38px;&quot;&gt;Prototypical design for beta&lt;/font&gt;" style="text;html=1;align=center;verticalAlign=middle;whiteSpace=wrap;rounded=0;fillColor=#b1ddf0;strokeColor=#10739e;" parent="1" vertex="1">
          <mxGeometry x="-355" y="-1140" width="710" height="30" as="geometry" />
        </mxCell>
        <mxCell id="2wjJZJvgFoSb4_y81fCn-9" value="&lt;font style=&quot;font-size: 26px;&quot;&gt;REGISTRATION / LOGIN SERVICE&lt;/font&gt;" style="ellipse;whiteSpace=wrap;html=1;" parent="1" vertex="1">
          <mxGeometry x="450" y="-1020" width="320" height="300" as="geometry" />
        </mxCell>
        <mxCell id="2wjJZJvgFoSb4_y81fCn-10" value="&lt;font style=&quot;font-size: 26px;&quot;&gt;AUTHORIZATION SERVICE&lt;/font&gt;" style="rhombus;whiteSpace=wrap;html=1;" parent="1" vertex="1">
          <mxGeometry x="-185" y="-940" width="380" height="330" as="geometry" />
        </mxCell>
        <mxCell id="SsCd7qsra2-NHg8JwVQN-1" value="&lt;font style=&quot;font-size: 26px;&quot;&gt;MODEL SERVICE&lt;/font&gt;" style="rounded=1;whiteSpace=wrap;html=1;" vertex="1" parent="1">
          <mxGeometry x="-150" y="-410" width="300" height="165" as="geometry" />
        </mxCell>
      </root>
    </mxGraphModel>
  </diagram>
</mxfile>
